<?xml version="1.0" encoding="UTF-8"?>
<svg width="1200pt" height="1200pt" version="1.1" viewBox="0 0 1200 1200" xmlns="http://www.w3.org/2000/svg">
 <g>
  <path d="m402.6 573.48-28.078-70.199c-25.078 5.0391-50.641 9.1211-75.719 14.16 9.3594 24 18.602 46.801 27.961 70.32 25.195-5.1602 50.633-9.2422 75.836-14.281z"/>
  <path d="m873.24 588c9.3594-24 18.602-46.922 27.961-70.32-25.078-5.0391-50.641-9.1211-75.719-14.16l-28.078 70.199c25.199 4.8008 50.637 8.8828 75.836 14.281z"/>
  <path d="m120.84 511.32 84 210.72c1.418 3.4922 4.3984 6.1133 8.0391 7.082h2.7617c2.875-0.035156 5.6445-1.0977 7.8008-3 48-41.879 108-52.68 171.24-64.078 58.801-10.559 120-21.602 169.8-60l23.52 57.957-86.16 214.68c-2.1758 5.9609 0.66016 12.586 6.4805 15.121 1.3672 0.56641 2.8398 0.85156 4.3203 0.83984 4.7695-0.050781 9.0586-2.9258 10.918-7.3203l76.441-192 76.441 192c1.8594 4.3945 6.1484 7.2695 10.918 7.3203 1.4805 0.011719 2.9531-0.27344 4.3203-0.83984 5.8203-2.5352 8.6562-9.1602 6.4805-15.121l-85.559-214.68 23.398-57c50.398 37.801 111 48.84 169.8 60 63.48 11.398 123.48 22.199 171.24 64.078 2.1562 1.9023 4.9258 2.9688 7.8008 3h2.7617c3.6406-0.96484 6.6172-3.5859 8.0391-7.0781l84-210.72c1.7852-4.625 0.54297-9.8672-3.1211-13.203-52.801-46.199-118.8-58.078-182.64-69.602-60.719-10.922-118.2-21.359-164.88-58.922l6-15.121v0.007812c7.875-1.168 14.543-6.418 17.52-13.801 3.1523-7.6758 1.9688-16.445-3.1016-23.012-5.0703-6.5664-13.258-9.9297-21.48-8.8203-8.2188 1.1055-15.227 6.5156-18.379 14.191-2.3398 5.5625-2.3398 11.836 0 17.398 0.74609 1.7227 1.7148 3.3359 2.8828 4.8008l-112.44 282.36-112.68-282.6c1.0977-1.4727 2.0625-3.0391 2.8789-4.6797 2.3359-5.6094 2.3359-11.914 0-17.52-1.9297-6.0625-6.293-11.047-12.039-13.766-5.75-2.7188-12.371-2.9258-18.281-0.57031-5.9062 2.3516-10.57 7.0547-12.879 12.98-2.3047 5.9258-2.043 12.547 0.71875 18.273 2.2969 5.4023 6.5977 9.7031 12 12 1.7383 0.71875 3.5508 1.2422 5.4023 1.5586l5.8789 14.879c-46.68 37.559-104.16 48-164.88 58.922-63.84 12-129.84 23.398-182.64 69.602-3.707 3.5312-4.7695 9.0234-2.6406 13.68zm547.08 9.9609h0.003906c17.172 13.156 36.121 23.82 56.277 31.68l27.961-70.199c-20.133-7.8359-39.043-18.504-56.16-31.684l24-58.68c17.371 12.805 36.379 23.215 56.52 30.961l-24 60c23.809 8.9219 48.34 15.789 73.32 20.52 7.9219-19.801 15.719-39.602 24-59.281 13.441 2.7617 63.961 12 75.719 14.281-7.9219 19.68-15.719 39.48-24 59.16 25 4.6602 49.535 11.527 73.32 20.52l24-59.398c20.234 7.7227 39.172 18.488 56.16 31.918l-24 59.16c-17.117-13.176-36.027-23.844-56.16-31.68l-28.078 70.199v0.003907c20.133 7.9023 39.074 18.566 56.277 31.68l-24 58.801v-0.003907c-17.352-12.824-36.367-23.238-56.52-30.957l24-60c-23.746-8.9531-48.242-15.781-73.199-20.402-7.9219 19.68-15.84 39.48-24 59.16-13.441-2.7617-64.078-12-75.719-14.281l24-59.16v0.003906c-24.973-4.6055-49.473-11.477-73.199-20.523l-24 60c-20.211-7.6953-39.113-18.461-56.043-31.918zm-466.08-42.723 24 59.398v0.003907c23.785-8.9922 48.32-15.859 73.32-20.52-7.9219-19.68-15.719-39.48-24-59.16 12-2.2812 62.281-12 75.719-14.281 7.9219 19.68 15.719 39.48 24 59.281 24.98-4.7344 49.512-11.598 73.32-20.52l-24-60c20.141-7.7461 39.152-18.16 56.52-30.961l24 58.801c-17.117 13.18-36.027 23.844-56.16 31.68l27.961 70.199c20.16-7.8594 39.105-18.523 56.281-31.68l24 59.16c-17.289 13.605-36.605 24.418-57.242 32.039l-24-60c-23.727 9.0469-48.227 15.914-73.199 20.52l24 59.16c-12 2.2812-62.281 12-75.719 14.281-7.8008-19.68-15.719-39.48-24-59.16-24.957 4.6211-49.453 11.445-73.199 20.398l24 60c-20.152 7.7227-39.168 18.137-56.52 30.961l-24-58.801c17.203-13.113 36.145-23.773 56.277-31.68l-28.078-70.199c-20.133 7.832-39.043 18.5-56.16 31.68l-24-59.16c17.238-13.328 36.422-23.93 56.879-31.441z"/>
 </g>
</svg>
