<?xml version="1.0" encoding="UTF-8"?>
<svg width="1200pt" height="1200pt" version="1.1" viewBox="0 0 1200 1200" xmlns="http://www.w3.org/2000/svg">
 <g>
  <path d="m507.43 1008-41.145-24-41.141 24v-101.14h-61.715v207.43l102.86-58.285 102.86 58.285v-207.43h-61.715z"/>
  <path d="m985.71 101.14c-5.1445-5.1445-10.285-8.5703-17.145-12-3.4258-1.7148-6.8555-3.4297-13.715-3.4297h-642.86c-29.145 0-58.285 12-80.57 32.57-20.57 20.57-32.57 49.715-32.57 80.57v718.29c0 29.145 12 58.285 32.57 80.57 20.57 20.57 49.715 32.57 80.57 32.57l30.855 0.003906v-61.715h-30.855c-18.855 0-36-10.285-44.57-25.715-8.5703-15.43-8.5703-36 0-51.43 8.5703-15.43 25.715-25.715 44.57-25.715h572.57c-3.4297 15.43-6.8555 32.57-6.8555 48 0 18.855 1.7148 36 6.8555 54.855l-294.86 0.003906v61.715h390.86v-61.715h-30.855c-12-32.57-12-70.285 0-102.86 13.715 0 25.715-5.1445 36-15.43s15.43-22.285 15.43-36v-677.14c-1.7148-13.715-6.8594-27.43-15.43-36zm-46.285 702.86h-625.71c-17.145 0-36 3.4297-51.43 12v-617.14c0-13.715 5.1445-27.43 15.43-36 10.285-10.285 22.285-15.43 36-15.43h625.71z"/>
  <path d="m325.71 216h564v39.43h-564z" fill-rule="evenodd"/>
  <path d="m325.71 313.71h526.29v39.43h-526.29z" fill-rule="evenodd"/>
  <path d="m325.71 411.43h488.57v39.43h-488.57z" fill-rule="evenodd"/>
  <path d="m325.71 606.86h488.57v39.43h-488.57z" fill-rule="evenodd"/>
  <path d="m325.71 706.29h526.29v39.43h-526.29z" fill-rule="evenodd"/>
 </g>
</svg>
