<?xml version="1.0" encoding="UTF-8"?>
<svg width="1200pt" height="1200pt" version="1.1" viewBox="0 0 1200 1200" xmlns="http://www.w3.org/2000/svg">
 <path d="m150 350v575c0 41.395 33.605 75 75 75h700c41.395 0 75-33.605 75-75v-575zm0-50h850v-75c0-41.395-33.605-75-75-75h-700c-41.395 0-75 33.605-75 75zm75 750c-69.008 0-125-55.992-125-125v-700c0-69.008 55.992-125 125-125h700c69.008 0 125 55.992 125 125v700c0 69.008-55.992 125-125 125zm700-850c13.809 0 25 11.191 25 25s-11.191 25-25 25h-50c-13.809 0-25-11.191-25-25s11.191-25 25-25zm-650 0c13.809 0 25 11.191 25 25s-11.191 25-25 25h-50c-13.809 0-25-11.191-25-25s11.191-25 25-25zm150 0c13.809 0 25 11.191 25 25s-11.191 25-25 25h-50c-13.809 0-25-11.191-25-25s11.191-25 25-25z"/>
</svg>
