<?xml version="1.0" encoding="UTF-8"?>
<svg width="1200pt" height="1200pt" version="1.1" viewBox="0 0 1200 1200" xmlns="http://www.w3.org/2000/svg">
 <g>
  <path d="m1140.2 249.45h-294.18v-63.637c0-50.184-40.727-90.91-90.91-90.91l-310.18 0.003906c-50.184 0-90.91 40.727-90.91 90.91v63.637l-294.18-0.003906c-22.91 0-41.637 18.727-41.637 41.816v318.36c0 38.91 18.363 73.637 46.91 96.184v345.64c0 29.453 24 53.453 53.453 53.453h962.91c29.453 0 53.453-24 53.453-53.453l0.003906-345.64c28.547-22.363 46.91-57.09 46.91-96.184l-0.003906-318.18c0-23.09-18.727-42-41.633-42zm-749.82-63.637c0-30 24.547-54.547 54.547-54.547h310.18c30 0 54.547 24.547 54.547 54.547v63.637h-36.363v-63.637c0-10-8.1836-18.184-18.184-18.184l-310.18 0.003907c-10 0-18.184 8.1836-18.184 18.184v63.637h-36.363zm72.727 63.637v-45.453h273.82v45.453zm635.46 802c0 9.4531-7.6367 17.09-17.09 17.09l-962.91 0.003906c-9.4531 0-17.09-7.6367-17.09-17.09l-0.003906-325.82c12.363 4.1836 25.453 6.5469 39.09 6.5469h94.91v24.363c0 20.184 14.91 36.727 34.184 39.637v51.453c0 4.9102 2 9.4531 5.4531 12.91l57.637 57.273c3.4531 3.4531 8.1836 5.2734 12.727 5.2734 4.3633 0 8.5469-1.4531 12-4.5469l57.816-50.727c4-3.4531 6.1836-8.3633 6.1836-13.637v-57.816c19.273-2.9102 34.184-19.453 34.184-39.637v-24.363h290.55v24.363c0 20.184 14.91 36.727 34.184 39.637v51.453c0 4.9102 2 9.4531 5.4531 12.91l57.637 57.273c3.4531 3.4531 8.1836 5.2734 12.727 5.2734 4.3633 0 8.5469-1.4531 12-4.5469l57.816-50.727c4-3.4531 6.1836-8.3633 6.1836-13.637v-57.816c19.273-2.9102 34.184-19.453 34.184-39.637v-24.363h92.91c13.637 0 26.727-2.3633 39.09-6.5469l-0.003907 325.45zm-792.55-254.73h79.09v49.09l-38.727 34.184-40.363-40zm113.27-40.18c0 2.1836-1.8164 4-4 4h-139.82c-2.1836 0-4-1.8164-4-4v-95.637c0-2.1836 1.8164-4 4-4h139.82c2.1836 0 4 1.8164 4 4zm397.45 40.18h79.09v49.09l-38.727 34.184-40.363-40zm113.46-40.18c0 2.1836-1.8164 4-4 4h-139.82c-2.1836 0-4-1.8164-4-4v-95.637c0-2.1836 1.8164-4 4-4h139.82c2.1836 0 4 1.8164 4 4zm215.27-146.91c0 47.453-38.547 86-86 86h-92.91v-34.91c0-22.184-18-40.363-40.363-40.363h-139.82c-22.184 0-40.363 18-40.363 40.363v34.91h-290.36v-34.91c0-22.184-18-40.363-40.363-40.363h-139.82c-22.184 0-40.363 18-40.363 40.363v34.91h-94.547c-47.457 0-86-38.547-86-86v-318.18c0-3.0898 2.3633-5.4531 5.2734-5.4531h1080.4c2.9102 0 5.2734 2.3633 5.2734 5.4531z"/>
  <path d="m993.64 379.09h-782.18c-10 0-18.184 8.1836-18.184 18.184s8.1836 18.184 18.184 18.184h70.91v50.727c0 10 8.1836 18.184 18.184 18.184s18.184-8.1836 18.184-18.184v-50.727h674.91c10 0 18.184-8.1836 18.184-18.184-0.007813-10-8.1875-18.184-18.188-18.184z"/>
 </g>
</svg>
