<?xml version="1.0" encoding="UTF-8"?>
<svg width="1200pt" height="1200pt" version="1.1" viewBox="0 0 1200 1200" xmlns="http://www.w3.org/2000/svg">
 <g>
  <path d="m1074.5 18.184h-948.91c-40.727 0-73.82 33.09-73.82 73.633v775.09c0 40.547 33.09 73.637 73.637 73.637h352.91v81.453h-34.184c-38.184 0-69.273 31.09-69.273 69.273l0.003906 72.367c0 10 8.1836 18.184 18.184 18.184h413.82c10 0 18.184-8.1836 18.184-18.184v-72.363c0-38.184-31.09-69.273-69.273-69.273h-30.727v-81.453h349.45c35.09 0 65.637-25.09 72.547-60.184 0.72656-4.5469 1.0898-8.9102 1.0898-13.453v-775.09c0-40.543-33.094-73.633-73.637-73.633zm-986.36 73.633c0-20.543 16.727-37.27 37.453-37.27h948.91c20.547 0 37.273 16.727 37.273 37.273v676h-37.453l-0.003907-657.46c0-10-8.1836-18.184-18.184-18.184l-912.18 0.003906c-10 0-18.184 8.1836-18.184 18.184v657.45l-37.633-0.003906zm74 676v-639.27h875.64v639.27zm626.73 323.46v54.18h-377.64v-54.184c0-18.184 14.727-32.91 32.91-32.91h311.64c18.18 0.003906 33.09 14.73 33.09 32.914zm-100-69.273h-174.18v-81.453h174.18zm422.91-155.09c0 2.5469-0.36328 5.0898-0.54688 7.0898-3.4531 17.453-18.91 30.184-36.727 30.184h-948.91c-20.547 0-37.273-16.727-37.273-37.273v-62.727h1023.5z"/>
  <path d="m351.45 542h-102.73c-10 0-18.184 8.1836-18.184 18.184v132.36c0 10 8.1836 18.184 18.184 18.184h102.73c10 0 18.184-8.1836 18.184-18.184v-132.36c0-10-8.1836-18.184-18.184-18.184zm-18.18 132.55h-66.363v-96h66.363z"/>
  <path d="m551.27 452.91h-102.55c-10 0-18.184 8.1836-18.184 18.184l0.003906 221.63c0 10 8.1836 18.184 18.184 18.184h102.55c10 0 18.184-8.1836 18.184-18.184l-0.007813-221.64c0-10.18-8-18.18-18.18-18.18zm-18.184 221.64h-66.184l0.003906-185.27h66.184z"/>
  <path d="m751.27 509.45h-102.55c-10 0-18.184 8.1836-18.184 18.184v165.09c0 10 8.1836 18.184 18.184 18.184h102.55c10 0 18.184-8.1836 18.184-18.184v-165.09c-0.003906-10-8.1836-18.184-18.184-18.184zm-18.184 165.09h-66.184v-128.73h66.184z"/>
  <path d="m951.09 393.09h-102.73c-10 0-18.184 8.1836-18.184 18.184l0.003906 281.45c0 10 8.1836 18.184 18.184 18.184h102.73c10 0 18.184-8.1836 18.184-18.184l-0.003906-281.45c0-10-8-18.184-18.184-18.184zm-18.18 281.46h-66.363v-245.09h66.363z"/>
  <path d="m300.18 446.73c2.5469 0 5.0898-0.54687 7.4531-1.6367l192.36-87.273 192.36 87.273c6.1836 2.9102 13.637 1.8164 18.91-2.3633l164.55-132.91-3.4531 26.363c-1.2734 10 5.8164 19.09 15.637 20.363 0.72656 0.18359 1.6367 0.18359 2.3633 0.18359 9.0898 0 16.91-6.7266 18-15.816l9.0898-70.91c0.72656-4.9102-0.36328-10-3.6367-14.184-1.0898-1.2734-2.3633-2-3.6367-3.0898-0.54688-0.36328-1.0898-0.91016-1.6367-1.2734-1.4531-0.72656-2.9102-1.0898-4.3633-1.4531-0.72656-0.18359-1.4531-0.72656-2.1836-0.72656l-71.273-9.4531c-10-1.4531-19.09 5.6367-20.363 15.637-1.2734 10 5.6367 19.09 15.637 20.363l29.453 3.8164-158.18 127.82-189.64-86c-4.7266-2.1836-10.184-2.1836-15.09 0l-199.82 90.547c-9.0898 4.1836-13.273 14.91-9.0898 24 3.0898 6.7266 9.6367 10.727 16.547 10.727z"/>
 </g>
</svg>
