<?xml version="1.0" encoding="UTF-8"?>
<svg width="1200pt" height="1200pt" version="1.1" viewBox="0 0 1200 1200" xmlns="http://www.w3.org/2000/svg">
 <path d="m600 38.887c154.95 0 295.23 62.801 396.76 164.35 101.55 101.54 164.35 241.81 164.35 396.76s-62.801 295.23-164.35 396.76c-101.54 101.55-241.81 164.35-396.76 164.35s-295.23-62.812-396.76-164.35c-101.54-101.54-164.35-241.81-164.35-396.76s62.801-295.23 164.35-396.76c101.54-101.55 241.81-164.35 396.76-164.35zm-460.36 282.15 71.762 41.438c18.852-30.762 41.227-59.113 66.602-84.477 79.898-79.898 189.35-130.25 310.55-133.24v-82.848c-144.07 3.0117-274.24 62.625-369.12 157.51-30.477 30.473-57.301 64.574-79.789 101.61zm60.34 61.172-71.762-41.426c-42.328 76.891-66.426 165.24-66.426 259.21s24.102 182.32 66.426 259.21l71.762-41.426c-35.301-64.699-55.363-138.9-55.363-217.79s20.062-153.09 55.363-217.79zm11.422 455.31-71.762 41.438c22.488 37.039 49.324 71.148 79.801 101.61 94.887 94.887 225.05 154.5 369.12 157.51v-82.836c-121.2-3-230.65-53.336-310.55-133.24-25.387-25.375-47.773-53.723-66.613-84.488zm400.05 217.73v82.836c144.07-3.0117 274.24-62.613 369.12-157.51 30.477-30.477 57.312-64.574 79.801-101.61l-71.762-41.438c-18.836 30.762-41.227 59.113-66.602 84.488-79.898 79.887-189.36 130.24-310.56 133.24zm388.57-237.46 71.762 41.426c42.336-76.887 66.426-165.24 66.426-259.21 0-93.977-24.102-182.32-66.426-259.21l-71.762 41.426c35.301 64.699 55.363 138.9 55.363 217.79 0 78.879-20.062 153.08-55.363 217.78zm-11.422-455.31 71.762-41.438c-22.488-37.039-49.324-71.137-79.801-101.61-94.887-94.887-225.05-154.5-369.12-157.51v82.836c121.2 3 230.65 53.336 310.55 133.24 25.387 25.375 47.773 53.723 66.613 84.488zm-213.44-27.09c-16.562 0-30 13.426-30 29.988v0.33594l-124.09 52.738c-5.4258-5.3516-12.863-8.6641-21.074-8.6641-16.562 0-30 13.426-30 30v0.36328l-124.12 52.75c-5.4141-5.3359-12.852-8.6367-21.051-8.6367-16.562 0-30 13.426-30 29.988s13.426 30 30 30 30-13.426 30-30v-0.32422l124.14-52.762c5.4141 5.3242 12.836 8.6133 21.023 8.6133 16.562 0 30-13.426 30-30v-0.30078l124.12-52.75c5.4141 5.3359 12.852 8.6367 21.051 8.6367 16.574 0 30-13.426 30-30 0-16.551-13.426-29.977-30-29.977zm-460.15 497.9h569.96c6.3242 0 11.449-5.125 11.449-11.449 0-6.3242-5.125-11.449-11.449-11.449h-52.586l0.003907-344.28c0-6.3242-5.125-11.449-11.449-11.449h-91.562c-6.3242 0-11.449 5.125-11.449 11.449v344.27h-60.688v-260.3c0-6.3242-5.125-11.449-11.449-11.449h-91.574c-6.3242 0-11.449 5.125-11.449 11.449v260.3h-60.676l-0.003906-156.97c0-6.3242-5.125-11.449-11.449-11.449h-91.574c-6.3242 0-11.449 5.125-11.449 11.449v156.98h-52.574c-6.3242 0-11.449 5.125-11.449 11.449-0.027344 6.3242 5.0977 11.449 11.422 11.449zm75.488-168.43v145.52h68.676v-145.52zm419 145.52v-332.82h-68.676v332.82zm-175.16 0v-248.85h-68.676v248.85zm271.48-516.2c-78.262-78.262-186.39-126.68-305.81-126.68s-227.55 48.414-305.81 126.68-126.68 186.39-126.68 305.81 48.398 227.55 126.68 305.81c78.262 78.262 186.39 126.68 305.81 126.68s227.55-48.414 305.81-126.68 126.68-186.39 126.68-305.81-48.414-227.55-126.68-305.81z" fill-rule="evenodd"/>
</svg>
