<?xml version="1.0" encoding="UTF-8"?>
<svg width="1200pt" height="1200pt" version="1.1" viewBox="0 0 1200 1200" xmlns="http://www.w3.org/2000/svg">
 <path d="m599.41 640.61c20.785-8.8984 37.238-25.617 45.797-46.547 8.5625-20.926 8.543-44.383-0.046876-65.297-8.5938-20.914-25.07-37.609-45.871-46.477l-76.93-32.812-32.871-77.082c-8.9141-20.766-25.637-37.199-46.559-45.746-20.922-8.5508-44.363-8.5312-65.273 0.050781-20.906 8.5781-37.605 25.035-46.488 45.816l-32.812 76.961-77.109 32.871c-20.77 8.9141-37.199 25.637-45.75 46.559-8.5469 20.918-8.5312 44.363 0.050781 65.273 8.5781 20.906 25.035 37.605 45.816 46.488l76.992 32.812 32.871 77.082c8.9062 20.773 25.629 37.215 46.551 45.77 20.926 8.5547 44.375 8.5352 65.285-0.050781 20.914-8.5859 37.609-25.051 46.484-45.84l32.812-76.961 76.934-32.812zm-23.73-55.109-87.949 37.531c-7.1055 3.0508-12.77 8.7148-15.82 15.82l-37.5 87.918c-2.668 6.332-7.7227 11.359-14.07 13.988-6.3477 2.625-13.477 2.6445-19.836 0.046875-6.3633-2.5938-11.441-7.5938-14.141-13.914l-37.559-88.039v0.003906c-3.0508-7.1094-8.7148-12.773-15.824-15.82l-87.945-37.504c-6.3203-2.6758-11.336-7.7305-13.957-14.078-2.625-6.3438-2.6406-13.465-0.050781-19.824 2.5898-6.3555 7.5781-11.438 13.891-14.145l88.066-37.559c7.1055-3.0508 12.77-8.7148 15.82-15.82l37.5-87.918v-0.003906c2.6758-6.3242 7.7305-11.336 14.078-13.961 6.3438-2.6211 13.465-2.6367 19.824-0.046875 6.3555 2.5898 11.438 7.5781 14.145 13.887l37.559 88.039c3.0508 7.1055 8.7148 12.77 15.824 15.82l87.891 37.5h-0.003906c6.3516 2.6602 11.387 7.7227 14.02 14.086 2.6289 6.3594 2.6406 13.504 0.023438 19.871-2.6133 6.3672-7.6406 11.441-13.98 14.117zm290.33 179.5-42.07-17.93-17.988-42.156c-6.6055-15.406-19-27.594-34.516-33.934-15.512-6.3398-32.898-6.3203-48.398 0.050781-15.504 6.3711-27.875 18.582-34.449 34l-17.93 42.039-42.188 17.988c-15.406 6.6094-27.594 19.008-33.934 34.527-6.3398 15.516-6.3242 32.902 0.046875 48.406 6.3711 15.504 18.586 27.883 34.004 34.461l42.07 17.93 17.988 42.156c6.6055 15.402 19.004 27.59 34.516 33.93 15.516 6.3398 32.898 6.3203 48.402-0.050781 15.5-6.3711 27.871-18.582 34.445-34l17.93-42.039 42.07-17.93 0.12109-0.058594v-0.003906c15.383-6.625 27.551-19.027 33.879-34.539 6.3242-15.508 6.3086-32.883-0.050781-48.383-6.3594-15.496-18.551-27.875-33.949-34.469zm-23.617 62.285-53.086 22.645v0.003906c-7.1055 3.0469-12.77 8.7109-15.82 15.82l-22.676 53.113 27.602 11.777-34.629-11.777-22.676-53.113c-3.0508-7.1094-8.7148-12.773-15.82-15.82l-53.145-22.676-11.777 27.602 11.777-34.66 53.145-22.676c7.1055-3.0508 12.77-8.7148 15.82-15.82l22.676-53.113-27.602-11.777 34.629 11.777 22.676 53.113c3.0508 7.1055 8.7148 12.77 15.82 15.82l55.43 26.219c0.10937 1.5742-0.85156 3.0273-2.3438 3.543zm146.02-492.48-51.562-22.004-22.031-51.68v0.003906c-5.2891-12.625-14.215-23.391-25.641-30.926-11.422-7.5391-24.832-11.512-38.52-11.41h-0.058594c-13.727-0.10156-27.172 3.8789-38.625 11.438-11.457 7.5586-20.406 18.355-25.711 31.016l-21.973 51.562-51.68 22.059c-16.852 7.2461-30.184 20.824-37.117 37.809-6.9336 16.98-6.9141 36.008 0.050781 52.98 6.9648 16.969 20.32 30.523 37.188 37.738l51.562 22.004 22.031 51.68v-0.003907c5.3164 12.625 14.266 23.387 25.711 30.918 11.441 7.5352 24.863 11.496 38.566 11.387h0.058593c13.707 0.09375 27.133-3.8906 38.57-11.449 11.438-7.5625 20.363-18.352 25.648-31l21.973-51.535 51.562-22.004 0.12109-0.058594c16.871-7.2266 30.219-20.805 37.164-37.793 6.9453-16.988 6.9297-36.031-0.046875-53.008-6.9766-16.977-20.355-30.527-37.238-37.723zm-23.613 73.418-62.578 26.719c-7.1094 3.0508-12.77 8.7148-15.82 15.82l-26.656 62.492c-1.4023 3.8008-5.0898 6.2734-9.1406 6.1211-4.0117 0.13281-7.6719-2.2695-9.1406-6.0078l-26.719-62.605c-3.0508-7.1055-8.7148-12.77-15.82-15.82l-62.52-26.688c-3.6719-1.5352-6.0703-5.1133-6.0938-9.0898-0.027344-3.9766 2.3242-7.582 5.9727-9.1641l62.637-26.746c7.1094-3.0508 12.773-8.7148 15.82-15.82l26.664-62.492c1.4453-3.8008 5.1367-6.2695 9.1992-6.1523 4.0039-0.16797 7.668 2.2539 9.082 6.0039l26.719 62.641c3.0508 7.1055 8.7148 12.77 15.82 15.82l62.52 26.688c3.7109 1.5156 6.1406 5.1172 6.1523 9.1211 0.015624 4.0078-2.3906 7.625-6.0938 9.1602z"/>
</svg>
